<?xml version="1.0" encoding="UTF-8"?>
<svg width="47px" height="48px" viewBox="0 0 47 48" version="1.1" xmlns="http://www.w3.org/2000/svg" xmlns:xlink="http://www.w3.org/1999/xlink">
    <!-- Generator: Sketch 51.1 (57501) - http://www.bohemiancoding.com/sketch -->
    <title>dribbble</title>
    <desc>Created with Sketch.</desc>
    <defs></defs>
    <g id="dribbble" stroke="none" stroke-width="1" fill="none" fill-rule="evenodd">
        <rect id="Rectangle" x="2" y="2" width="44" height="44"></rect>
        <circle id="Oval" stroke="#E3E4E6" stroke-width="2" cx="23.25" cy="24" r="21"></circle>
        <path d="M34.0262098,21.7862896 C33.8826219,21.0787818 33.6652996,20.3829149 33.3845916,19.7180904 C33.1103516,19.0662002 32.7675516,18.4375919 32.370421,17.8503733 C31.9771712,17.2683285 31.52571,16.719913 31.0289734,16.2232348 C30.5309431,15.7252631 29.9837567,15.273855 29.4003499,14.8806514 C28.8130623,14.4822741 28.18438,14.1421012 27.5324131,13.8653066 C26.8675104,13.5859251 26.1715617,13.3673349 25.4652643,13.2250573 C24.7408567,13.0763125 23.9957517,13 23.2506468,13 C22.5042483,13 21.7591433,13.0763125 21.0347357,13.2250573 C20.3284383,13.3673349 19.6324896,13.5859251 18.9675869,13.8653066 C18.31562,14.1421012 17.6869377,14.4822741 17.0983566,14.8806514 C16.5162433,15.273855 15.9690569,15.7252631 15.4710266,16.2232348 C14.9729964,16.719913 14.5228288,17.2683285 14.129579,17.8503733 C13.7311548,18.4375919 13.3896484,19.0662002 13.1141148,19.7180904 C12.8334068,20.3829149 12.6173781,21.0787818 12.4724966,21.7862896 C12.3250279,22.5080252 12.25,23.2543359 12.25,23.9993533 C12.25,24.7456641 12.3250279,25.4919748 12.4724966,26.2162973 C12.6173781,26.9212182 12.8334068,27.6183785 13.1141148,28.2819096 C13.3896484,28.9337998 13.7311548,29.5637016 14.129579,30.1522135 C14.5228288,30.7342583 14.9729964,31.280087 15.4710266,31.7780587 C15.9690569,32.2760303 16.5162433,32.726145 17.0983566,33.1193486 C17.6869377,33.5177259 18.31562,33.8591922 18.9675869,34.1346934 C19.6324896,34.4153683 20.3284383,34.6300782 21.0347357,34.7749427 C21.7591433,34.9249809 22.5042483,35 23.2506468,35 C23.9957517,35 24.7408567,34.9249809 25.4652643,34.7749427 C26.1715617,34.6300782 26.8675104,34.4153683 27.5324131,34.1346934 C28.18438,33.8591922 28.8130623,33.5177259 29.4003499,33.1193486 C29.9837567,32.726145 30.5309431,32.2760303 31.0289734,31.7780587 C31.52571,31.280087 31.9771712,30.7342583 32.370421,30.1522135 C32.7675516,29.5637016 33.1103516,28.9337998 33.3845916,28.2819096 C33.6652996,27.6183785 33.8826219,26.9212182 34.0262098,26.2162973 C34.1749721,25.4919748 34.25,24.7456641 34.25,23.9993533 C34.25,23.2543359 34.1749721,22.5080252 34.0262098,21.7862896 Z M32.6420739,23.9062261 C32.5062474,23.8764772 29.3266155,23.1922512 26.099121,23.5983891 C26.0318545,23.4380034 25.9645881,23.2763243 25.8960281,23.1146452 C25.6994032,22.6541831 25.4898424,22.1988947 25.2712266,21.7513669 C28.9812283,20.236757 30.4869613,18.058616 30.5050714,18.0327474 C31.821941,19.6340173 32.6200829,21.6776412 32.6420739,23.9062261 Z M29.4546804,16.950144 C29.4313959,16.9863602 28.093829,19.023517 24.546819,20.3518725 C22.94148,17.4015521 21.17703,15.0578517 21.0360293,14.8715974 C21.7462074,14.6995708 22.4874316,14.6064436 23.2506468,14.6064436 C25.628256,14.6064436 27.7988916,15.4937386 29.4546804,16.950144 Z M20.9998089,14.879358 C20.9998089,14.8806514 20.9985153,14.8806514 20.9985153,14.8806514 C20.9985153,14.8806514 20.9868731,14.8832383 20.9700564,14.8871186 C20.9791115,14.8845317 20.9894602,14.8832383 20.9998089,14.879358 Z M19.2418269,15.5040861 C19.3660111,15.6722323 21.1045893,18.0262802 22.7306256,20.9171027 C18.2198947,22.116115 14.304213,22.068258 14.0558447,22.0643777 C14.6664168,19.1541537 16.6210237,16.7419013 19.2418269,15.5040861 Z M13.855339,23.9993533 C13.855339,23.899759 13.8605133,23.8014581 13.8631005,23.7031572 C14.0286794,23.7070375 18.6713559,23.8118055 23.5080702,22.3644541 C23.7771359,22.8908813 24.0345593,23.4263625 24.2699918,23.9605503 C24.1458076,23.995473 24.022917,24.0329825 23.9000265,24.073079 C18.8304669,25.7118584 16.2588199,30.2725028 16.2588199,30.2725028 C16.2588199,30.2725028 16.2627007,30.2763831 16.2627007,30.2776765 C14.7660228,28.6130284 13.855339,26.4128991 13.855339,23.9993533 Z M23.2506468,33.3935564 C20.9765244,33.3935564 18.8912654,32.5851608 17.265229,31.241284 C17.3894132,31.3408784 17.4760834,31.40555 17.4760834,31.40555 C17.4760834,31.40555 19.2767537,27.4786878 24.8482243,25.537245 C24.8689216,25.5294844 24.889619,25.5230172 24.9116099,25.5165501 C26.2336538,28.9519078 26.7782531,31.8285026 26.9179603,32.6498324 C25.7912477,33.1284026 24.5506997,33.3935564 23.2506468,33.3935564 Z M28.5000147,31.790993 C28.4042894,31.2244694 27.903672,28.4668705 26.6708855,25.0819566 C29.7043423,24.5969193 32.3316135,25.4285966 32.5256512,25.4919748 C32.1078232,28.1085896 30.6085582,30.3669234 28.5000147,31.790993 Z" id="Shape" fill="#E3E4E6" fill-rule="nonzero"></path>
    </g>
</svg>