<?xml version="1.0" encoding="UTF-8"?>
<svg width="47px" height="48px" viewBox="0 0 47 48" version="1.1" xmlns="http://www.w3.org/2000/svg" xmlns:xlink="http://www.w3.org/1999/xlink">
    <!-- Generator: Sketch 51.1 (57501) - http://www.bohemiancoding.com/sketch -->
    <title>github</title>
    <desc>Created with Sketch.</desc>
    <defs></defs>
    <g id="github" stroke="none" stroke-width="1" fill="none" fill-rule="evenodd">
        <circle id="Oval" stroke="#E3E4E6" stroke-width="2" cx="24" cy="24" r="21"></circle>
        <path d="M12,24.3044338 C12,29.7398363 15.4380429,34.3519218 20.2065134,35.9789169 C20.8069002,36.0922174 21.0256914,35.7122831 21.0256914,35.3859777 C21.0256914,35.0936624 21.015378,34.3201977 21.0094846,33.2936952 C17.671629,34.0369464 16.9673716,31.6440399 16.9673716,31.6440399 C16.4214985,30.2224964 15.634734,29.8440727 15.634734,29.8440727 C14.5451978,29.0804274 15.7172412,29.0962895 15.7172412,29.0962895 C16.921698,29.1831532 17.555235,30.3644997 17.555235,30.3644997 C18.6263544,32.2445326 20.364161,31.7014455 21.0477915,31.3864702 C21.1568188,30.5911007 21.4669572,30.0495243 21.8095092,29.741347 C19.1449707,29.4309036 16.3434114,28.3756983 16.3434114,23.660887 C16.3434114,22.3171431 16.8111974,21.2188837 17.5788084,20.3585552 C17.4557844,20.0473565 17.0439854,18.7965191 17.6966758,17.1030543 C17.6966758,17.1030543 18.7044415,16.7714615 20.9962246,18.3637112 C21.9538967,18.0910346 22.9800792,17.9543187 24.0003683,17.9497867 C25.0199208,17.9543187 26.0461033,18.0910346 27.0052488,18.3637112 C29.2955585,16.7714615 30.3018509,17.1030543 30.3018509,17.1030543 C30.9560146,18.7965191 30.5442156,20.0473565 30.4211916,20.3585552 C31.1902759,21.2188837 31.6543786,22.3171431 31.6543786,23.660887 C31.6543786,28.3870284 28.8491359,29.4271269 26.1757574,29.7322829 C26.6067098,30.1122172 26.9897787,30.8630219 26.9897787,32.0103782 C26.9897787,33.6555014 26.9757819,34.9826279 26.9757819,35.3859777 C26.9757819,35.7153044 27.1916265,36.0975048 27.8008533,35.9774062 C32.5649038,34.3473898 36,29.7390809 36,24.3044338 C36,17.5086701 30.6267227,12 23.998895,12 C17.3732773,12 12,17.5086701 12,24.3044338 Z" id="Shape" fill="#E3E4E6" fill-rule="nonzero"></path>
    </g>
</svg>