<?xml version="1.0" encoding="UTF-8"?>
<svg width="47px" height="48px" viewBox="0 0 47 48" version="1.1" xmlns="http://www.w3.org/2000/svg" xmlns:xlink="http://www.w3.org/1999/xlink">
    <!-- Generator: Sketch 51.1 (57501) - http://www.bohemiancoding.com/sketch -->
    <title>linkedin</title>
    <desc>Created with Sketch.</desc>
    <defs></defs>
    <g id="linkedin" stroke="none" stroke-width="1" fill="none" fill-rule="evenodd">
        <circle id="Oval" stroke="#E3E4E6" stroke-width="2" cx="24" cy="24" r="21"></circle>
        <path d="M14.5044685,20.4131131 L18.4026341,20.4131131 L18.4026341,33.9987194 L14.5044685,33.9987194 L14.5044685,20.4131131 Z M16.3541863,18.7137918 L16.3259643,18.7137918 C14.9148636,18.7137918 14,17.6752465 14,16.3600973 C14,15.0180561 14.9419097,14 16.3812324,14 C17.8193791,14 18.7036689,15.0154949 18.7318909,16.3562556 C18.7318909,17.6714048 17.8193791,18.7137918 16.3541863,18.7137918 Z M34,34 L29.5797272,34 L29.5797272,26.9683698 C29.5797272,25.1281854 28.8882879,23.8732232 27.3678269,23.8732232 C26.2048448,23.8732232 25.5580903,24.7196824 25.2570555,25.537969 C25.1441675,25.8299398 25.1618062,26.2384428 25.1618062,26.6482264 L25.1618062,34 L20.7826905,34 C20.7826905,34 20.8391345,21.5451402 20.7826905,20.4131131 L25.1618062,20.4131131 L25.1618062,22.5452683 C25.420508,21.6130106 26.8198495,20.2824946 29.0529163,20.2824946 C31.8233772,20.2824946 34,22.2379306 34,26.4446152 L34,34 Z" id="Shape" fill="#E3E4E6" fill-rule="nonzero"></path>
    </g>
</svg>