<?xml version="1.0" encoding="UTF-8"?>
<svg width="47px" height="48px" viewBox="0 0 47 48" version="1.1" xmlns="http://www.w3.org/2000/svg" xmlns:xlink="http://www.w3.org/1999/xlink">
    <!-- Generator: Sketch 51.1 (57501) - http://www.bohemiancoding.com/sketch -->
    <title>mail</title>
    <desc>Created with Sketch.</desc>
    <defs></defs>
    <g id="mail" stroke="none" stroke-width="1" fill="none" fill-rule="evenodd">
        <rect id="Rectangle" x="2" y="2" width="44" height="44"></rect>
        <circle id="Oval" stroke="#E3E4E6" stroke-width="2" cx="24" cy="24" r="21"></circle>
        <path d="M15.1115479,20.9319176 C14.6041918,20.6137699 14.1253151,20.1762296 13.6752192,19.6194362 C13.2251233,19.0626427 13,18.5454609 13,18.0681695 C13,17.4773437 13.1698219,16.9848493 13.5094658,16.5908259 C13.8491096,16.196942 14.3340137,16 14.9641781,16 L33.0356712,16 C33.5674384,16 34.0279315,16.177973 34.4166986,16.5340586 C34.8054658,16.8901442 35,17.3182 35,17.8182262 C35,18.4167233 34.799589,18.9887198 34.3983151,19.5339366 C33.9971918,20.0794323 33.4981233,20.545426 32.9006575,20.9316387 C29.8233699,22.9090085 27.9080137,24.1400352 27.1551918,24.6248583 C27.0733699,24.6779992 26.8993288,24.7933469 26.6333699,24.9714595 C26.367411,25.149572 26.1465068,25.293652 25.9705068,25.4034207 C25.7945068,25.5131893 25.5817397,25.6362083 25.3322055,25.7726171 C25.0826712,25.908747 24.8471507,26.0112628 24.6262466,26.0791882 C24.4051918,26.1475321 24.2005616,26.1814251 24.0123562,26.1814251 L24,26.1814251 L23.9876438,26.1814251 C23.7994384,26.1814251 23.5948082,26.1475321 23.3737534,26.0791882 C23.1528493,26.0112628 22.9174795,25.9088864 22.6677945,25.7726171 C22.4181096,25.6363478 22.2053425,25.5131893 22.0293425,25.4034207 C21.8534932,25.293652 21.6324384,25.149572 21.3664795,24.9714595 C21.1005205,24.7934864 20.9266301,24.6779992 20.8448082,24.6248583 C20.0999726,24.1401747 19.0278493,23.4489252 17.6282877,22.5512492 C16.228726,21.6535732 15.389863,21.1136566 15.1115479,20.9319176 Z M33.7722192,22.1477413 C34.2388904,21.8523284 34.648,21.522604 35,21.1591262 L35,30.1816343 C35,30.6818 34.8078767,31.1095769 34.4230274,31.4658019 C34.0383288,31.822027 33.5758767,32 33.0358219,32 L14.9643288,32 C14.4241233,32 13.9616712,31.822027 13.5769726,31.4658019 C13.192274,31.1097163 13,30.6818 13,30.1816343 L13,21.1591262 C13.360137,21.5302753 13.7734658,21.8599997 14.2399863,22.1477413 C17.2027534,24.0112977 19.2365479,25.3182 20.3415205,26.0681695 C20.8080411,26.3863173 21.1865616,26.6345869 21.4770822,26.8124205 C21.7676027,26.990533 22.154411,27.1722719 22.6372055,27.3579162 C23.12,27.5435605 23.5702466,27.6363129 23.9876438,27.6363129 L24,27.6363129 L24.0125068,27.6363129 C24.4299041,27.6363129 24.88,27.5435605 25.3627945,27.3579162 C25.8457397,27.1722719 26.2323973,26.990533 26.5229178,26.8124205 C26.813589,26.6345869 27.1921096,26.3863173 27.6586301,26.0681695 C29.0497534,25.1363216 31.0879178,23.8294193 33.7722192,22.1477413 Z" id="Shape" fill="#E3E4E6" fill-rule="nonzero"></path>
    </g>
</svg>